# xmcd
#
# Track frame offsets: 
#        150
#        14595
#        31825
#        47870
#        67440
#        79995
#        93962
#        111307
#        131762
#        146772
#        161707
#        182895
#        198920
#
# Disc length: 2824 seconds
#
# Revision: 2
# Processed by: cddbd v1.5.2PL0 Copyright (c) Steve Scherf et al.
# Submitted via: ExactAudioCopy v0.99pb4
#
DISCID=c30b060d
DTITLE=Alan Jackson - Who I Am
DYEAR=1994
DGENRE=Country
TTITLE0=Summertime Blues
TTITLE1=Livin' On Love
TTITLE2=Hole In The Wall
TTITLE3=Gone Country
TTITLE4=Who I Am
TTITLE5=You Can't Give Up On Love
TTITLE6=I Don't Even Know Your Name
TTITLE7=Song For The Life
TTITLE8=Thank God For The Radio
TTITLE9=All American Country Boy
TTITLE10=Job Description
TTITLE11=If I Had You
TTITLE12=Let's Get Back To Me And You
EXTD=
EXTT0=
EXTT1=
EXTT2=
EXTT3=
EXTT4=
EXTT5=
EXTT6=
EXTT7=
EXTT8=
EXTT9=
EXTT10=
EXTT11=
EXTT12=
PLAYORDER=
